<svg version="1.1" id="Layer_1" xmlns="http://www.w3.org/2000/svg" xmlns:xlink="http://www.w3.org/1999/xlink" x="0px" y="0px"
     width="100%" viewBox="193 180 640 640" enable-background="new 193 180 640 640" xml:space="preserve">
<path fill="#343D78" opacity="1.000000" stroke="none" 
    d="
M393.295044,550.010010 
    C393.296692,585.657593 393.301147,620.807312 393.295929,655.956970 
    C393.294403,666.237732 389.760529,670.044739 379.702423,670.084717 
    C357.546906,670.172791 335.390594,670.160950 313.235016,670.074036 
    C304.099731,670.038208 300.670380,666.416443 300.669128,657.227722 
    C300.659576,585.595642 300.660736,513.963623 300.658600,442.331543 
    C300.658569,441.831787 300.670227,441.331696 300.656403,440.832336 
    C300.534729,436.435638 302.064240,432.868011 306.325012,431.207397 
    C310.706604,429.499725 314.008606,431.450348 316.724121,434.935059 
    C325.629456,446.362976 334.560120,457.771332 343.530060,469.148590 
    C358.170898,487.718658 372.830688,506.273895 387.523132,524.803101 
    C393.353821,532.156433 393.552551,540.766968 393.295044,550.010010 
z"/>
<path fill="#343D78" opacity="1.000000" stroke="none" 
    d="
M455.178955,431.864868 
    C459.302948,437.121552 463.279175,442.044464 467.127533,447.065338 
    C471.227905,452.415039 471.214844,456.233002 467.101807,461.523010 
    C454.124908,478.213318 441.130188,494.889862 428.096558,511.535858 
    C423.347839,517.600708 417.413055,517.107605 412.006256,510.222473 
    C394.420868,487.828613 376.865143,465.411469 359.299805,443.001862 
    C341.529053,420.330109 323.814362,397.614105 305.946564,375.019104 
    C302.264679,370.363159 300.336761,365.533539 300.553040,359.459869 
    C300.920319,349.146301 300.613312,338.809570 300.639832,328.482697 
    C300.658264,321.304504 303.358643,317.617584 310.581299,317.414978 
    C327.220245,316.948273 343.879700,317.115448 360.529694,317.214783 
    C364.194855,317.236633 367.038879,319.325806 369.327148,322.262268 
    C383.451416,340.387604 397.629028,358.471375 411.804657,376.556610 
    C426.185242,394.903229 440.584045,413.235565 455.178955,431.864868 
z"/>
<path fill="#343D78" opacity="1.000000" stroke="none" 
    d="
M520.514648,438.536255 
    C534.790405,420.162415 548.841919,402.066315 563.707031,382.922546 
    C565.788452,390.048920 564.718323,395.894562 564.743896,401.507996 
    C564.906921,437.323944 565.403198,473.144989 564.395447,508.960114 
    C564.273682,513.286499 562.393372,516.606018 559.910095,519.789246 
    C546.696899,536.727173 533.441101,553.631897 520.244812,570.582947 
    C513.494385,579.254028 506.810944,587.977722 500.146423,596.715210 
    C494.112854,604.625366 487.518921,605.034119 481.292236,597.292419 
    C468.556091,581.457581 456.134766,565.369873 443.459747,549.485229 
    C440.087128,545.258606 440.253540,541.563232 443.519043,537.382690 
    C469.155884,504.562683 494.710541,471.678436 520.514648,438.536255 
z"/>
<path fill="#343D78" opacity="1.000000" stroke="none" 
    d="
M639.116821,527.241760 
    C637.778503,514.680115 643.064209,508.579102 655.437134,508.709106 
    C672.216064,508.885345 684.808044,502.427460 691.974182,486.835449 
    C694.429688,481.492981 695.595825,475.773743 695.602722,469.887787 
    C695.635986,441.730469 695.636658,413.573059 695.604980,385.415710 
    C695.581421,364.500793 681.055969,348.634521 660.589172,347.080353 
    C640.026855,345.518921 623.412292,358.847504 620.229675,379.658295 
    C618.280518,392.403381 619.749146,405.258759 619.388733,418.059082 
    C619.210571,424.385010 619.340210,430.720703 619.394409,437.051453 
    C619.412109,439.114532 619.441833,441.040375 617.203308,442.152588 
    C607.317444,447.064423 599.554810,454.573120 592.248352,462.637573 
    C591.940735,462.977203 591.414001,463.118408 590.944092,463.376892 
    C588.936707,462.048706 589.752197,460.026917 589.748169,458.361420 
    C589.690125,434.369507 589.637451,410.377045 589.732910,386.385345 
    C589.872681,351.253876 613.012146,323.287323 647.735901,318.074249 
    C683.910583,312.643372 717.118774,335.612183 724.317688,371.775146 
    C725.069336,375.550903 725.367188,379.331757 725.361938,383.178436 
    C725.321106,413.335114 725.383301,443.491974 725.322815,473.648590 
    C725.253418,508.246674 695.431458,538.147278 660.900146,538.337585 
    C658.734253,538.349548 656.567749,538.362488 654.402466,538.322083 
    C646.748474,538.179199 642.124207,534.908264 639.116821,527.241760 
z"/>
<path fill="#343D78" opacity="1.000000" stroke="none" 
    d="
M674.003479,671.298645 
    C632.206848,681.487366 595.694702,652.169739 590.563782,613.592651 
    C589.104431,602.620544 589.857361,591.639709 589.759766,580.666077 
    C589.586426,561.173767 589.518616,541.675781 589.793640,522.185608 
    C590.105835,500.067261 597.120361,480.755798 614.461792,465.985809 
    C628.757751,453.809692 645.520630,449.731506 663.773193,451.012726 
    C672.255249,451.608063 677.604492,458.107086 677.261597,466.100281 
    C676.915344,474.173187 670.637756,480.338135 662.133972,480.242249 
    C652.923767,480.138336 644.119446,481.395325 636.421753,486.703552 
    C624.987976,494.588135 619.635620,506.062439 619.466492,519.562500 
    C619.109558,548.049072 619.186707,576.544617 619.412109,605.033875 
    C619.577637,625.961792 635.212646,643.312683 655.902405,644.268921 
    C674.550110,645.130798 689.544800,633.523438 694.581238,614.479980 
    C695.434875,611.252136 695.690735,607.954346 695.670227,604.592651 
    C695.566467,587.598511 695.583252,570.603638 695.533081,553.609131 
    C695.528198,551.933960 695.215637,550.165710 697.069641,549.216736 
    C707.567078,543.843689 716.280151,536.202576 724.034424,527.629578 
    C725.923706,528.415466 725.340271,529.734558 725.340820,530.803101 
    C725.352966,555.295410 724.628357,579.813782 725.518250,604.273499 
    C726.627075,634.750183 703.227051,664.861389 674.003479,671.298645 
z"/>
</svg>